<svg width="32" height="32" viewBox="0 0 32 32" fill="none" xmlns="http://www.w3.org/2000/svg">
<rect width="32" height="32" rx="5" fill="#151316"/>
<g clip-path="url(#clip0_76_3)">
<path d="M13.6693 5.05396C14.3573 5.06713 15.1601 5.26494 16.0521 5.64185L16.4007 5.79517C18.1568 6.60111 20.059 7.98314 21.7991 9.71997C23.1158 11.0341 24.2271 12.4423 25.0403 13.8069H25.0765C25.3364 13.8037 25.5154 13.7432 25.6175 13.6399C25.7201 13.5359 25.7823 13.3585 25.7855 13.0999L25.7825 12.969C25.765 12.6551 25.6714 12.2753 25.5081 11.8596C25.082 10.7781 24.2471 9.58092 23.1536 8.4895C22.1282 7.46757 21.0097 6.66996 19.9808 6.22388L19.7767 6.13892C19.36 5.97594 18.9782 5.88392 18.6644 5.86646L18.5345 5.86353C18.2976 5.86828 18.1316 5.92015 18.0247 6.00806L17.9954 6.03149L17.9632 6.01294C17.7678 5.89692 17.5742 5.78693 17.3821 5.68384L17.3255 5.65356L17.3646 5.60376C17.3932 5.56673 17.424 5.5306 17.4583 5.49634L17.5589 5.40747C17.804 5.21416 18.1287 5.11448 18.5228 5.10864C18.9679 5.10204 19.4825 5.21461 20.0521 5.43774H20.053C21.235 5.90222 22.5244 6.79704 23.6868 7.95728C24.8494 9.11759 25.7459 10.4045 26.2112 11.5842C26.4348 12.1527 26.5469 12.6663 26.5403 13.1106C26.5337 13.5603 26.4067 13.9205 26.1526 14.1741C25.9698 14.3565 25.7309 14.4722 25.4427 14.5256C25.6075 14.8391 25.7572 15.1479 25.8851 15.4534L26.0179 15.7834C26.308 16.5448 26.4615 17.2336 26.473 17.8333C26.4844 18.5319 26.3018 19.0816 25.9222 19.4622C25.5425 19.8428 24.9901 20.025 24.2903 20.012C24.0793 20.0083 23.8563 19.9856 23.6243 19.9465L23.39 19.9026C22.9307 19.8063 22.4349 19.6477 21.9056 19.425C20.0546 18.6484 18.0146 17.1994 16.1585 15.3469C14.3024 13.4944 12.8498 11.4564 12.0716 9.6106C11.8453 9.07454 11.6848 8.57155 11.5892 8.10669C10.8103 7.80702 10.1016 7.6393 9.51984 7.62036C8.91272 7.59959 8.47142 7.73222 8.19952 8.00513C7.92748 8.27822 7.79304 8.7171 7.81378 9.32251C7.82976 9.79141 7.94327 10.3446 8.14484 10.9514L8.17316 11.0374L8.08429 11.0217C7.84156 10.9784 7.60853 10.9509 7.38409 10.9397L7.34601 10.9377L7.33527 10.9006C7.1691 10.3396 7.0763 9.81914 7.05988 9.3479C7.03199 8.53922 7.23366 7.90472 7.6673 7.47192C8.1009 7.03922 8.73613 6.83767 9.5462 6.86548C10.1255 6.88602 10.7764 7.01917 11.4876 7.26392L11.4857 7.23169C11.4743 6.53323 11.657 5.98321 12.0364 5.60278C12.4162 5.22223 12.9693 5.04084 13.6693 5.05396ZM12.2454 7.21802C12.2469 7.32898 12.2564 7.44584 12.2718 7.56763C12.274 7.56849 12.2764 7.56966 12.2786 7.57056C12.2904 7.57517 12.3039 7.58016 12.3177 7.58618C14.4699 8.51813 16.8569 10.2302 19.0355 12.4045C21.0222 14.3875 22.6191 16.5387 23.5931 18.5315L23.6439 18.634L23.5325 18.6077C23.2592 18.5423 22.9671 18.449 22.6575 18.3303L22.639 18.3235L22.6292 18.3059C21.6791 16.5481 20.2462 14.6793 18.5003 12.9368C16.537 10.9788 14.416 9.4165 12.472 8.48755C12.5521 8.75306 12.6519 9.03097 12.7728 9.3186C13.5117 11.0737 14.9058 13.0254 16.6966 14.8127C18.4874 16.6001 20.4429 17.9913 22.2015 18.7288V18.7297C22.514 18.8616 22.8154 18.9675 23.1019 19.051C23.2304 19.0879 23.3559 19.1195 23.4778 19.1467C23.4921 19.1499 23.5072 19.1531 23.5208 19.1565H23.5198C23.6434 19.1837 23.7634 19.206 23.8782 19.2219C24.0286 19.2427 24.1728 19.2539 24.3069 19.2571C24.8069 19.2666 25.1673 19.1531 25.3909 18.9299L25.3968 18.9241V18.9231C25.6179 18.6995 25.7335 18.3419 25.7239 17.8459C25.7127 17.2697 25.5302 16.5424 25.1946 15.7454C25.0265 15.3448 24.8215 14.9348 24.5872 14.5178C24.271 14.4688 23.9278 14.3749 23.5628 14.2307C22.3808 13.7663 21.0906 12.8725 19.928 11.7122C18.7657 10.5521 17.87 9.26476 17.4046 8.08521L17.3275 7.8811L17.2737 7.73267L17.4066 7.81665C17.5764 7.92374 17.7467 8.03602 17.9173 8.15259L18.431 8.51587L18.4407 8.52368L18.4466 8.53442C18.9154 9.41061 19.6106 10.327 20.4632 11.178C21.5568 12.2678 22.7565 13.1023 23.8401 13.5276C23.9015 13.5517 23.9633 13.571 24.0228 13.592C23.2874 12.4712 22.3528 11.3292 21.2708 10.2493C20.2058 9.18633 19.0818 8.26607 17.9759 7.53735V7.54126L17.8929 7.48657C17.6358 7.31875 17.3804 7.15876 17.1273 7.01392C16.6638 6.74963 16.2073 6.52086 15.764 6.33423C14.9653 5.99766 14.2361 5.81803 13.6585 5.80688C13.1586 5.79898 12.7982 5.91197 12.5745 6.13501C12.3509 6.35825 12.2359 6.7183 12.2454 7.21704V7.21802Z" fill="#F4F2EE" stroke="#F4F2EE" stroke-width="0.10744"/>
<path d="M6.4693 17.6522C6.36027 17.6806 6.27631 17.7232 6.2193 17.7802L6.21832 17.7792C6.11577 17.8832 6.05449 18.0616 6.05133 18.3202C6.04661 18.6567 6.14216 19.0843 6.32867 19.5594L6.41266 19.7635C6.85941 20.7905 7.65768 21.907 8.68317 22.9305C9.77678 24.0204 10.9764 24.8549 12.0601 25.2802C12.5363 25.4664 12.965 25.5612 13.3023 25.5565C13.5621 25.5534 13.7404 25.4933 13.8443 25.3895L13.8931 25.33C13.9384 25.2628 13.9708 25.1736 13.9908 25.0624V25.0614C13.9952 25.0395 13.9982 25.014 14.0015 24.9872C14.0064 24.9422 14.0113 24.898 14.0113 24.8514C14.0113 24.7695 14.0062 24.684 13.9966 24.5936V24.5927L13.9488 24.3065C13.9256 24.199 13.8967 24.0867 13.8609 23.9706L13.7349 23.6112C13.3088 22.5295 12.4741 21.3317 11.3804 20.2401C10.2867 19.1501 9.08624 18.3158 8.0025 17.8905L7.96832 17.8768V17.8759C7.76114 17.7958 7.56415 17.735 7.37946 17.6913C8.13189 18.8756 9.11339 20.0876 10.2603 21.2323C11.0839 22.0542 11.9417 22.7921 12.7994 23.4208L13.1666 23.6835L13.1793 23.6923L13.1851 23.705L13.23 23.8065L13.317 24.0458C13.3949 24.2795 13.444 24.4961 13.4615 24.6805L13.4722 24.7889L13.3795 24.7303C12.1521 23.9499 10.903 22.9391 9.72711 21.7655C8.40188 20.4428 7.28383 19.0255 6.4693 17.6522ZM20.0464 24.2528C20.0579 24.9513 19.8753 25.5028 19.4957 25.8817C19.1159 26.2623 18.5628 26.4437 17.8629 26.4305C17.2622 26.419 16.5728 26.2659 15.8101 25.9764L15.4791 25.8446C15.3874 25.807 15.2938 25.7647 15.2037 25.7245L15.1578 25.704L15.1754 25.6561C15.2461 25.4644 15.2893 25.2511 15.3052 25.0194L15.3101 24.9413L15.3814 24.9745C15.512 25.0356 15.643 25.0936 15.772 25.1483C16.5705 25.4848 17.2991 25.6655 17.8765 25.6766L18.0572 25.6737C18.4644 25.6543 18.7647 25.5428 18.9605 25.3475C19.1842 25.1242 19.3002 24.7644 19.2906 24.2655C19.286 24.055 19.2577 23.8246 19.2095 23.578C17.0875 22.6372 14.7501 20.9514 12.6099 18.8153C10.7365 16.9455 9.20844 14.9235 8.22321 13.0282L8.16461 12.9169L8.28571 12.952C8.54877 13.0287 8.82919 13.1299 9.12067 13.2518C9.13696 13.2587 9.15393 13.2661 9.16949 13.2733L9.21539 13.2938L9.23199 13.3007L9.24078 13.3163C10.1862 14.9535 11.53 16.6711 13.1431 18.2811C15.0266 20.1594 17.0554 21.6729 18.9341 22.6132C18.8818 22.4666 18.825 22.317 18.7613 22.1649C18.0224 20.4098 16.6283 18.4572 14.8375 16.6698C13.0467 14.8825 11.0911 13.4913 9.33258 12.7538C9.11835 12.6638 8.91002 12.587 8.70856 12.5194C8.57373 12.4746 8.44204 12.4357 8.31305 12.4003V12.3993C8.30052 12.3962 8.28749 12.3936 8.27496 12.3905H8.27399C8.14424 12.3553 8.01761 12.3266 7.8941 12.3026C7.65313 12.2561 7.42929 12.2286 7.22418 12.2255C6.72391 12.2175 6.3629 12.3313 6.13922 12.5546C5.91563 12.7779 5.80055 13.1378 5.81012 13.6366C5.82129 14.2129 6.00376 14.9409 6.33942 15.7382C6.4938 16.1044 6.67939 16.4802 6.88824 16.8612C7.30021 16.8772 7.76791 16.9855 8.28082 17.1874C9.46274 17.6519 10.7521 18.5467 11.9146 19.7069C13.0771 20.8672 13.9737 22.1541 14.439 23.3339C14.6365 23.8339 14.7469 24.2928 14.7652 24.6981L14.7681 24.8602V24.8612C14.7665 24.9127 14.7654 24.9639 14.7603 25.0145C14.7584 25.0504 14.7532 25.0848 14.7486 25.1171C14.747 25.13 14.7453 25.1413 14.7437 25.1522V25.1532C14.7374 25.1942 14.7289 25.2333 14.7213 25.2704V25.2831L14.6675 25.2704L14.7203 25.2831C14.6601 25.5402 14.5491 25.7553 14.3804 25.9237H14.3795C14.1255 26.1753 13.7655 26.3048 13.315 26.3114C12.8699 26.318 12.3553 26.2055 11.7857 25.9823C10.6037 25.5179 9.31353 24.6231 8.15094 23.4628C6.9886 22.3026 6.09283 21.0154 5.6275 19.8358C5.40385 19.2672 5.2908 18.7529 5.29742 18.3085C5.30412 17.859 5.4321 17.4995 5.6861 17.246C5.79999 17.1323 5.93707 17.0446 6.09332 16.9813C5.92405 16.6613 5.77143 16.3434 5.6402 16.0321C5.26416 15.1401 5.06642 14.3381 5.05328 13.6512C5.04183 12.9527 5.22352 12.4009 5.60309 12.0204C5.98282 11.6398 6.53592 11.4584 7.2359 11.4716C7.35353 11.474 7.47474 11.4815 7.59918 11.495L7.98199 11.5516H7.99176L7.99078 11.5536L7.99176 11.5526C8.11596 11.5754 8.24485 11.604 8.37555 11.6366C8.76758 11.7344 9.18253 11.8738 9.62067 12.0575C11.4716 12.8342 13.5108 14.2842 15.3668 16.1366C17.2228 17.9891 18.6755 20.0262 19.4537 21.8719C19.6254 22.2798 19.7577 22.6682 19.855 23.035C20.7112 23.3835 21.4888 23.5789 22.1177 23.5995C22.7245 23.6202 23.1635 23.4866 23.4371 23.2137C23.6751 22.9748 23.8091 22.6094 23.8248 22.1161L23.8238 21.8964C23.811 21.5058 23.7299 21.0557 23.5865 20.5653L23.5621 20.4843L23.6461 20.4969C23.8612 20.5299 24.0682 20.5488 24.2672 20.5526L24.2701 20.5516H24.3726L24.3834 20.5917C24.5025 21.0492 24.5694 21.4754 24.5826 21.87C24.6105 22.6787 24.4088 23.3132 23.9752 23.746C23.5416 24.1786 22.9062 24.3802 22.0963 24.3524C21.4827 24.3318 20.786 24.1785 20.0211 23.9042C20.0336 24.0231 20.0438 24.1389 20.0464 24.2518V24.2528Z" fill="#F4F2EE" stroke="#F4F2EE" stroke-width="0.10744"/>
</g>
<defs>
<clipPath id="clip0_76_3">
<rect width="21.5954" height="21.488" fill="white" transform="translate(5 5)"/>
</clipPath>
</defs>
</svg>
