<svg width="992" height="228" viewBox="0 0 992 228" fill="none" xmlns="http://www.w3.org/2000/svg">
<g clip-path="url(#clip0_35_17)">
<path d="M91.7856 0.567924H91.7866C99.0728 0.706846 107.573 2.80408 117.019 6.79546H117.018C136.616 15.019 158.214 30.3644 177.867 49.9791C191.81 63.8953 203.585 78.8014 212.196 93.2515H212.571C215.324 93.218 217.219 92.5794 218.3 91.4849C219.388 90.3842 220.041 88.5033 220.075 85.7632V85.7623C220.125 82.1977 219.121 77.6667 217.145 72.6343C212.633 61.1819 203.797 48.5021 192.217 36.9449L191.128 35.8707C179.844 24.8554 167.573 16.4254 156.457 12.063C151.416 10.0914 146.86 9.08962 143.305 9.13921C140.797 9.18949 139.039 9.74057 137.908 10.6714L137.599 10.9244L137.255 10.7212C135.186 9.49205 133.134 8.33098 131.099 7.23882L130.506 6.92046L130.918 6.38921C131.222 5.99723 131.546 5.61817 131.91 5.25542L131.912 5.25445C134.6 2.58908 138.412 1.22 143.184 1.14996C147.898 1.08003 153.345 2.26899 159.377 4.63238H159.378C171.894 9.54979 185.55 19.0226 197.86 31.3091C210.17 43.5957 219.661 57.2252 224.588 69.7173L225.018 70.8394C227.1 76.4152 228.143 81.47 228.078 85.8814C228.007 90.643 226.654 94.4503 223.963 97.1353C222.033 99.0621 219.517 100.295 216.476 100.863C218.218 104.177 219.782 107.448 221.134 110.678H221.133C224.99 119.844 227.084 128.092 227.337 135.195L227.357 135.878V135.879C227.479 143.278 225.546 149.099 221.527 153.128C217.506 157.159 211.656 159.087 204.244 158.948V158.947C201.639 158.901 198.867 158.591 195.966 158.04L194.715 157.789C189.852 156.769 184.6 155.095 178.995 152.737V152.738C159.396 144.514 137.799 129.168 118.146 109.553C98.4934 89.9384 83.1178 68.3655 74.8784 48.8218C72.48 43.1408 70.7731 37.8122 69.7603 32.8863C61.5163 29.7151 54.0148 27.9412 47.8569 27.7408H47.856C41.4273 27.5207 36.7584 28.9321 33.8794 31.8218C30.998 34.714 29.5682 39.3593 29.7886 45.772C29.9578 50.7368 31.1611 56.5906 33.2954 63.0152L33.5972 63.9224L32.6558 63.7544C30.0856 63.2958 27.621 63.0078 25.2446 62.8892L24.8423 62.8687L24.728 62.482C23.0774 56.9097 22.1044 51.7166 21.8462 46.9761L21.8042 46.0337C21.509 37.4714 23.6436 30.753 28.2349 26.1705C32.6826 21.7313 39.1384 19.5934 47.3364 19.732L48.1353 19.7525L49.3364 19.8091C55.1623 20.1569 61.6407 21.5501 68.6812 23.9722C68.6764 23.8593 68.6735 23.7468 68.6733 23.6363L68.6675 22.9468C68.6739 15.8753 70.6089 10.2906 74.5024 6.38726C78.5231 2.35659 84.3737 0.42907 91.7856 0.567924ZM91.6782 8.53863C86.3824 8.45455 82.5658 9.65851 80.1978 12.022C77.9031 14.3125 76.6852 17.9593 76.7036 22.9878L76.7095 23.4791V23.482C76.725 24.6575 76.8282 25.8958 76.9907 27.1861C77.0145 27.1955 77.0381 27.2066 77.063 27.2164C77.1895 27.2661 77.3345 27.3221 77.4839 27.3873H77.4829C100.27 37.255 125.538 55.3738 148.605 78.396C169.645 99.3955 186.557 122.176 196.871 143.279L197.4 144.362L196.227 144.082C193.332 143.39 190.236 142.405 186.958 141.148L186.761 141.073L186.661 140.887C176.601 122.274 161.431 102.483 142.945 84.0318C122.152 63.2957 99.6901 46.7468 79.1021 36.9117C79.9516 39.728 81.0118 42.6735 82.2944 45.7252C90.1182 64.3091 104.879 84.9753 123.841 103.901C142.803 122.827 163.509 137.559 182.129 145.368L182.13 145.369C185.439 146.764 188.627 147.887 191.66 148.771C193.022 149.162 194.351 149.502 195.643 149.791H195.642C195.789 149.823 195.945 149.858 196.086 149.893H196.087C197.397 150.182 198.67 150.419 199.887 150.587L200.481 150.666C201.858 150.836 203.18 150.93 204.422 150.96H204.421C209.716 151.061 213.532 149.857 215.9 147.494L215.965 147.429L215.995 147.414C218.25 145.12 219.446 141.495 219.428 136.511L219.423 136.02C219.305 129.918 217.375 122.216 213.821 113.774V113.773C212.044 109.54 209.884 105.204 207.41 100.797C204.056 100.28 200.419 99.27 196.546 97.7408C184.031 92.8234 170.375 83.3514 158.065 71.065C145.755 58.7785 136.263 45.1489 131.336 32.6568V32.6558C131.041 31.9269 130.78 31.1972 130.525 30.5025L129.951 28.9361L131.362 29.8257C134.511 31.8109 137.673 33.9529 140.846 36.2408L142.208 37.231L142.311 37.3072L142.373 37.4214C147.336 46.699 154.696 56.4007 163.724 65.4117C175.304 76.9527 188.01 85.7905 199.485 90.2935H199.486C200.163 90.5602 200.829 90.809 201.485 91.0396C193.69 79.1462 183.756 67.0398 172.275 55.5806C160.998 44.3252 149.105 34.5701 137.394 26.8541V26.9039L136.514 26.3296C133.791 24.552 131.089 22.8629 128.408 21.3287V21.3277C123.499 18.5284 118.663 16.1071 113.968 14.1304C105.512 10.5668 97.7936 8.65763 91.6782 8.5396V8.53863Z" fill="#F4F2EE" stroke="#F4F2EE" stroke-width="1.1376"/>
<path d="M23.6704 68.5196H23.6714C25.8503 68.5652 28.1433 68.7967 30.5376 69.1895L31.5698 69.3672L31.6177 69.376H31.6226L31.6743 69.3848C32.9899 69.6267 34.3572 69.9202 35.7417 70.2657C39.8926 71.3014 44.2795 72.7846 48.9185 74.7295C68.517 82.953 90.1154 98.2992 109.768 117.914C129.421 137.529 144.795 159.102 153.035 178.646V178.647C154.854 182.967 156.262 187.079 157.293 190.965C166.355 194.653 174.583 196.717 181.241 196.935H181.242C187.669 197.155 192.322 195.744 195.219 192.853C198.1 189.96 199.529 185.315 199.309 178.903V178.902C199.174 174.767 198.31 170.003 196.792 164.81L196.542 163.953L197.423 164.088C199.703 164.437 201.897 164.637 204.005 164.677L204.034 164.663H205.123L205.233 165.089C206.494 169.934 207.206 174.447 207.345 178.625L207.366 179.422C207.505 187.605 205.362 194.049 200.915 198.488C196.323 203.071 189.592 205.201 181.014 204.906C174.524 204.689 167.153 203.079 159.062 200.179C159.173 201.237 159.254 202.274 159.292 203.288L159.309 203.845V203.849C159.431 211.246 157.499 217.084 153.479 221.097C149.458 225.127 143.609 227.056 136.197 226.917H136.196C128.928 226.778 120.43 224.68 110.952 220.707V220.708C109.98 220.31 108.99 219.859 108.036 219.434L107.549 219.217L107.734 218.717C108.484 216.686 108.938 214.428 109.107 211.973L109.165 211.145L109.916 211.496C111.298 212.144 112.682 212.757 114.048 213.337C122.505 216.901 130.223 218.81 136.338 218.928H136.337C141.634 219.012 145.451 217.809 147.819 215.445C150.187 213.081 151.408 209.272 151.307 203.99C151.258 201.765 150.972 199.327 150.463 196.72C127.991 186.76 103.244 168.901 80.5786 146.279C60.7414 126.48 44.5538 105.074 34.1216 85.0059L33.5073 83.8252L34.7847 84.1973C37.5716 85.0093 40.5442 86.0797 43.6323 87.3711H43.6333C43.8067 87.444 43.9834 87.5253 44.1489 87.6016C44.3178 87.6794 44.476 87.7524 44.6284 87.8165L44.8052 87.8907L44.9009 88.0567C54.9116 105.392 69.1405 123.578 86.2212 140.626C106.177 160.527 127.667 176.571 147.571 186.524C147.012 184.959 146.385 183.367 145.705 181.741V181.74C137.881 163.157 123.12 142.491 104.159 123.566C85.1965 104.641 64.4898 89.9085 45.8696 82.0997C43.6017 81.1466 41.4018 80.3286 39.269 79.6133V79.6143C37.8401 79.1389 36.4426 78.7307 35.0757 78.3555V78.3545C35.0116 78.3385 34.9474 78.3227 34.8833 78.3067C34.8147 78.2896 34.7458 78.273 34.6772 78.2559L34.6655 78.253C33.6338 77.9733 32.6209 77.7313 31.6265 77.5206L30.6392 77.3204C28.0876 76.828 25.7191 76.5415 23.5474 76.5079C18.2505 76.4234 14.4333 77.6265 12.0649 79.9903C9.69609 82.3546 8.47521 86.1644 8.57666 91.4473L8.59326 92.0245C8.81736 98.0322 10.7354 105.516 14.1782 113.693L14.8218 115.187C16.3195 118.592 18.0597 122.07 19.9888 125.589C24.3513 125.758 29.2992 126.903 34.731 129.041L35.9077 129.515C48.0992 134.553 61.2878 143.814 73.2134 155.717C85.5234 168.003 95.0139 181.633 99.9409 194.125C102.032 199.42 103.2 204.276 103.394 208.568H103.395C103.431 209.154 103.43 209.736 103.43 210.281V210.299C103.413 210.834 103.395 211.357 103.343 211.883L103.344 211.884C103.326 212.272 103.269 212.641 103.219 212.989C103.201 213.132 103.185 213.257 103.167 213.377L103.167 213.383C103.099 213.82 103.015 214.239 102.933 214.634V214.697L102.917 214.762C102.28 217.485 101.102 219.761 99.3159 221.544L99.3149 221.545C96.6264 224.21 92.8142 225.579 88.0425 225.649C83.6231 225.715 78.5585 224.675 72.9722 222.597L71.8481 222.167C59.3322 217.25 45.676 207.777 33.3657 195.49C21.0556 183.204 11.5651 169.574 6.63818 157.082H6.63721C4.26917 151.061 3.07882 145.623 3.14893 140.918C3.2191 136.156 4.57294 132.349 7.26318 129.664C8.46777 128.462 9.91187 127.521 11.564 126.852C9.77396 123.467 8.16787 120.1 6.77979 116.808C2.79821 107.363 0.696299 98.8791 0.557129 91.6065V91.6045C0.435365 84.2066 2.36695 78.3684 6.38623 74.3389C10.4069 70.3082 16.2583 68.3807 23.6704 68.5196ZM15.5425 133.956C14.3944 134.257 13.5096 134.714 12.9077 135.314L12.9087 135.315C11.8212 136.415 11.1668 138.296 11.1333 141.036V141.037C11.0832 144.602 12.0872 149.132 14.063 154.164C18.5746 165.617 27.4119 178.297 38.9917 189.855C50.5721 201.396 63.2774 210.233 74.7524 214.736C79.7943 216.708 84.334 217.71 87.9058 217.66H87.9067C90.6569 217.627 92.5376 216.989 93.6382 215.891L93.6421 215.887C94.3994 215.146 94.9158 213.992 95.1968 212.425L95.1987 212.413L95.2593 212.042C95.2774 211.911 95.2943 211.774 95.312 211.632C95.3632 211.154 95.4106 210.689 95.4106 210.195C95.4106 209.327 95.3604 208.422 95.2593 207.463L95.2563 207.434V207.424C95.1384 206.473 94.9708 205.455 94.7534 204.42V204.419C94.2632 202.143 93.501 199.673 92.481 197.06V197.061C87.9693 185.608 79.1321 172.928 67.5522 161.37C55.9719 149.829 43.2675 140.991 31.7925 136.488L31.4312 136.347V136.333C29.2299 135.483 27.1368 134.838 25.1753 134.375C33.1431 146.919 43.5437 159.746 55.6909 171.87C65.0345 181.196 74.7972 189.497 84.5259 196.451L86.4712 197.824L86.6001 197.914L86.6646 198.058C86.7381 198.221 86.8201 198.398 86.9019 198.579L87.1372 199.124L87.1382 199.126C88.507 202.567 89.3484 205.774 89.5952 208.378L89.7046 209.535L88.7241 208.911C75.7283 200.648 62.4986 189.95 50.0474 177.523C36.011 163.513 24.1678 148.501 15.5425 133.956Z" fill="#F4F2EE" stroke="#F4F2EE" stroke-width="1.1376"/>
</g>
<path d="M991.38 33.2593V198.211H964.305V33.2593H991.38Z" fill="#F4F2EE"/>
<path d="M919.635 144.972V140.649C880.956 144.289 865.258 149.749 865.258 163.856C865.258 174.549 874.131 180.92 887.782 180.92C907.804 180.92 919.635 170.681 919.635 144.972ZM893.925 72.1652C924.413 72.1652 946.71 85.3614 946.027 124.495C946.027 130.638 945.572 145.199 945.572 156.348C945.572 171.819 946.937 187.973 949.212 198.211H924.413C923.503 192.978 922.593 189.11 922.138 180.692C914.629 194.343 899.841 201.169 881.867 201.169C855.247 201.169 836.59 186.835 836.59 164.538C836.59 134.051 874.131 126.315 918.952 121.765V118.807C918.952 98.33 907.576 92.187 892.56 92.187C878.681 92.187 868.215 99.4676 867.533 114.256H840.913C842.733 89.2292 863.665 72.1652 893.925 72.1652Z" fill="#F4F2EE"/>
<path d="M746.068 75.8055V92.8695C753.121 80.1284 766.089 73.0753 783.153 73.0753C812.731 73.0753 824.789 92.187 824.789 121.309V198.211H797.715V127.908C797.715 111.299 795.212 95.1447 774.508 95.1447C753.803 95.1447 746.068 111.071 746.068 133.141V198.211H718.993V75.8055H746.068Z" fill="#F4F2EE"/>
<path d="M670.547 33.2593H697.622V60.5617H670.547V33.2593ZM670.547 75.8055H697.622V198.211H670.547V75.8055Z" fill="#F4F2EE"/>
<path d="M621.989 92.187V33.2593H649.064V198.211H621.989V182.057C614.709 194.116 601.967 201.169 585.586 201.169C555.781 201.169 533.029 176.369 533.029 137.008C533.029 97.875 555.781 73.0753 585.586 73.0753C601.967 73.0753 614.709 80.1284 621.989 92.187ZM623.127 137.008C623.127 108.796 609.248 95.1447 591.502 95.1447C572.617 95.1447 561.241 111.299 561.241 137.008C561.241 162.946 572.617 179.1 591.502 179.1C609.248 179.1 623.127 165.221 623.127 137.008Z" fill="#F4F2EE"/>
<path d="M536.118 76.033V103.335C531.568 102.88 527.245 102.653 523.15 102.653C506.086 102.653 496.302 109.478 496.302 134.051V198.211H469.227V75.8055H495.847V97.6474C502.445 83.9962 514.276 75.8055 529.065 75.578C531.113 75.578 534.071 75.8055 536.118 76.033Z" fill="#F4F2EE"/>
<path d="M325.373 115.622C325.373 155.665 346.987 177.507 374.289 177.507C401.592 177.507 423.206 155.665 423.206 115.622C423.206 75.578 401.592 53.9636 374.289 53.9636C346.987 53.9636 325.373 75.578 325.373 115.622ZM453.011 115.622C453.011 166.358 422.751 201.169 374.289 201.169C325.828 201.169 295.568 166.358 295.568 115.622C295.568 64.8846 325.828 30.3016 374.289 30.3016C422.751 30.3016 453.011 64.8846 453.011 115.622Z" fill="#F4F2EE"/>
<defs>
<clipPath id="clip0_35_17">
<rect width="228.657" height="227.52" fill="white"/>
</clipPath>
</defs>
</svg>
